<svg width="1366" height="204" viewBox="0 0 1366 204" fill="none" xmlns="http://www.w3.org/2000/svg">
<path d="M0 199.892H6.58299V131.295H11.4461C11.4461 131.295 22.5957 123.585 37.7385 131.295H43.4517V181.448H49.5997V190.878H59.7609V149.858H66.2252" stroke="#EBF0F3" stroke-width="1.6" stroke-linecap="round" stroke-linejoin="round"/>
<path d="M66.2252 145.727H84.3531V149.443H91.3117V199.893H97.8156V119.375L106.395 118.149L136.839 119.592V189.04H141.544V198.904H148.621V147.031L170.268 144.026" stroke="#EBF0F3" stroke-width="1.6" stroke-linecap="round" stroke-linejoin="round"/>
<path d="M468.163 124.732H443.729V128.211H436.731V190.048H428.863V175.696L388.14 174.885V186.41L376.99 180.025L365.84 186.845V202.324H359.257V148.217C344.253 143.077 328.181 148.217 328.181 148.217V185.6L317.249 186.826V129.022L308.254 128.172L281.112 129.397V197.046H265.672V189.099" stroke="#EBF0F3" stroke-width="1.6" stroke-linecap="round" stroke-linejoin="round"/>
<path d="M167.916 148.02L180.785 146.023V192.895H188.634V176.467L227.776 181.172V195.504" stroke="#EBF0F3" stroke-width="1.6" stroke-linecap="round" stroke-linejoin="round"/>
<path d="M781.478 183.089H798.558V115.045C798.558 115.045 818.702 103.639 839.934 115.045V176.249H847.644V198.034H857.726V152.527H865.238" stroke="#EBF0F3" stroke-width="1.6" stroke-linecap="round" stroke-linejoin="round"/>
<path d="M464.882 129.002H475.319V199.478H486.469V186.47H493.111C493.111 186.47 506.178 168.461 524.405 186.47V108.68L543.759 102.631L560.859 108.68V188.783L585.214 185.284V200.407H593.714V118.584L603.836 117.022L632.303 118.584V193.547H643.393V186.134L646.695 183.92V148.415L680.894 147.921L689.039 148.811V197.857" stroke="#EBF0F3" stroke-width="1.6" stroke-linecap="round" stroke-linejoin="round"/>
<path d="M863.736 147.466H905.092V151.973H911.951V199.32H923.101V87.2901L928.676 84.7202H961.472L967.264 87.0727V186.47H977.564V127.302H989.722V122.459H1003.8V127.302H1015.5V194.021H1025.78V144.165L1058.36 148.237" stroke="#EBF0F3" stroke-width="1.6" stroke-linecap="round" stroke-linejoin="round"/>
<path d="M1053.22 151.736L1071.54 154.247V199.853" stroke="#EBF0F3" stroke-width="1.6" stroke-linecap="round" stroke-linejoin="round"/>
<path d="M233.469 100.536L231.809 85.531L236.711 80.5295H251.103L256.144 85.531L254.483 100.536L247.821 104.549H240.151L233.469 100.536Z" stroke="#EBF0F3" stroke-width="1.6" stroke-linecap="round" stroke-linejoin="round"/>
<path d="M255.808 76.5363L256.144 73.5908L247.821 71.6534V51.5289L246.141 50.3625V32.6893H244.817V1H243.986H243.136V32.6893H241.812V50.3625L240.151 51.5289V71.6534L231.809 73.5908L232.145 76.5363H255.808Z" stroke="#EBF0F3" stroke-width="1.6" stroke-linecap="round" stroke-linejoin="round"/>
<path d="M752.596 95.2572V86.9543H718.752V95.2572H733.598V92.0745C733.598 90.9279 734.527 89.9987 735.674 89.9987C736.82 89.9987 737.749 90.9279 737.749 92.0745V95.2572H752.596Z" stroke="#EBF0F3" stroke-width="1.6" stroke-linecap="round" stroke-linejoin="round"/>
<path d="M754.434 84.0282C754.434 84.0282 740.003 75.8835 737.651 70.7238C737.651 70.7238 739.015 63.4094 735.674 59.0801C732.353 63.4094 733.697 70.7238 733.697 70.7238C731.344 75.8835 716.913 84.0282 716.913 84.0282H754.414H754.434Z" stroke="#EBF0F3" stroke-width="1.6" stroke-linecap="round" stroke-linejoin="round"/>
<path d="M733.598 120.62C733.598 119.474 734.527 118.545 735.674 118.545C736.82 118.545 737.75 119.474 737.75 120.62V123.388H759.12V115.085H712.228V123.388H733.598V120.62Z" stroke="#EBF0F3" stroke-width="1.6" stroke-linecap="round" stroke-linejoin="round"/>
<path d="M733.598 106.466C733.598 105.32 734.527 104.39 735.674 104.39C736.821 104.39 737.75 105.32 737.75 106.466V109.313H755.245V101.01H716.103V109.313H733.598V106.466Z" stroke="#EBF0F3" stroke-width="1.6" stroke-linecap="round" stroke-linejoin="round"/>
<path d="M733.598 171.722C733.598 170.576 734.527 169.647 735.674 169.647C736.821 169.647 737.75 170.576 737.75 171.722V174.549H767.897V162.332H703.471V174.549H733.618V171.722H733.598Z" stroke="#EBF0F3" stroke-width="1.6" stroke-linecap="round" stroke-linejoin="round"/>
<path d="M733.598 137.444C733.598 136.297 734.527 135.368 735.674 135.368C736.821 135.368 737.75 136.297 737.75 137.444V140.449H761.571V129.161H709.797V140.449H733.618V137.444H733.598Z" stroke="#EBF0F3" stroke-width="1.6" stroke-linecap="round" stroke-linejoin="round"/>
<path d="M733.598 153.673C733.598 152.527 734.527 151.598 735.674 151.598C736.82 151.598 737.75 152.527 737.75 153.673V156.579H764.635V145.292H706.732V156.579H733.618V153.673H733.598Z" stroke="#EBF0F3" stroke-width="1.6" stroke-linecap="round" stroke-linejoin="round"/>
<path d="M1181 123.012H1272.32C1272.32 123.012 1276.43 123.269 1276.43 117.517C1276.43 117.517 1268.2 116.014 1263.52 112.515H1189.82C1185.14 116.014 1176.91 117.517 1176.91 117.517C1176.91 123.25 1181.02 123.012 1181.02 123.012H1181Z" stroke="#EBF0F3" stroke-width="1.6" stroke-linecap="round" stroke-linejoin="round"/>
<path d="M1181 105.142H1272.32C1272.32 105.142 1276.43 104.647 1276.43 100.674C1276.43 100.674 1273.76 100.713 1270.6 100.318C1268.86 99.7646 1266.6 99.1518 1263.52 98.4203C1244.34 93.8933 1230.76 75.2514 1230.76 75.2514V61.8877H1222.58V75.2514C1222.58 75.2514 1209 93.8933 1189.82 98.4203C1186.74 99.1518 1184.46 99.7646 1182.74 100.318C1179.58 100.713 1176.91 100.674 1176.91 100.674C1176.91 104.667 1181.02 105.142 1181.02 105.142H1181Z" stroke="#EBF0F3" stroke-width="1.6" stroke-linecap="round" stroke-linejoin="round"/>
<path d="M1071.54 199.853H1084.77V185.996H1093.53V150.353H1104.5L1117.86 141.299H1130.91V159.486H1141.21L1146.31 164.131V173.502H1154.53V168.52H1187.27V148.494H1176.52C1176.52 148.494 1171.99 148.732 1171.99 143.295C1171.99 143.295 1181.04 141.872 1186.2 138.57H1189.84V135.862H1263.54V138.57H1267.18C1272.36 141.872 1281.39 143.295 1281.39 143.295C1281.39 148.732 1276.86 148.494 1276.86 148.494H1266.11V168.52H1303.67V130.683L1330.14 127.994L1347.04 130.683V184.414L1357.38 186.213V199.26H1366" stroke="#EBF0F3" stroke-width="1.6" stroke-linecap="round" stroke-linejoin="round"/>
<path d="M689.059 197.817H700.209V180.302H771.139V197.817H781.478V183.09" stroke="#EBF0F3" stroke-width="1.6" stroke-linecap="round" stroke-linejoin="round"/>
<path d="M227.776 195.504H238.589C238.905 175.043 239.696 123.131 240.052 108.542H247.92C248.236 121.826 248.928 165.989 249.284 189.257L265.672 189.079" stroke="#EBF0F3" stroke-width="1.6" stroke-linecap="round" stroke-linejoin="round"/>
<path d="M1239.16 202.127V191.57C1239.16 191.57 1239.38 178.879 1226.67 178.879C1213.96 178.879 1214.18 191.57 1214.18 191.57V202.127" stroke="#EBF0F3" stroke-width="1.6" stroke-linecap="round" stroke-linejoin="round"/>
<path d="M1260.93 148.494H1192.41V168.54H1210.93V152.527H1242.39V168.54H1260.93V148.494Z" stroke="#EBF0F3" stroke-width="1.6" stroke-linecap="round" stroke-linejoin="round"/>
</svg>
