<svg width="130" height="40" viewBox="0 0 130 40" fill="none" xmlns="http://www.w3.org/2000/svg">
<path d="M120.036 10.9744C122.796 10.9744 125.041 11.8392 126.77 13.5688C128.5 15.2616 129.365 17.5064 129.365 20.3033V38.5195C129.365 38.8875 129.181 39.0715 128.813 39.0715H127.764C127.396 39.0715 127.212 38.8875 127.212 38.5195V20.6897C127.212 18.4081 126.513 16.5496 125.114 15.1144C123.716 13.6424 121.894 12.9064 119.65 12.9064C117.258 12.9064 115.326 13.624 113.854 15.0592C112.418 16.4576 111.701 18.2977 111.701 20.5793V38.5195C111.701 38.8875 111.517 39.0715 111.149 39.0715H110.1C109.732 39.0715 109.548 38.8875 109.548 38.5195V11.9128C109.548 11.5448 109.732 11.3608 110.1 11.3608H111.149C111.517 11.3608 111.701 11.5448 111.701 11.9128V14.8936C111.701 15.004 111.719 15.0776 111.756 15.1144C111.829 15.1144 111.885 15.0776 111.921 15.004C112.731 13.716 113.817 12.7224 115.178 12.0232C116.577 11.324 118.196 10.9744 120.036 10.9744Z" fill="black"/>
<path d="M85.6212 10.2631C88.786 10.2631 91.1596 11.0911 92.742 12.7471C94.3613 14.3663 95.1709 16.6111 95.1709 19.4816V37.8634C95.1709 38.2314 94.9869 38.4154 94.6189 38.4154H93.5701C93.202 38.4154 93.018 38.2314 93.018 37.8634V35.1034C93.018 35.0298 92.9812 34.993 92.9076 34.993C92.8708 34.9562 92.8156 34.9746 92.742 35.0482C91.822 36.2994 90.5524 37.2562 88.9332 37.9186C87.3508 38.5442 85.6211 38.857 83.7443 38.857C81.2051 38.857 79.0523 38.2498 77.2858 37.0354C75.5562 35.7842 74.6914 33.8338 74.6914 31.1841C74.6914 28.4609 75.685 26.3449 77.6722 24.836C79.6963 23.2904 82.4747 22.5176 86.0076 22.5176H92.7972C92.9444 22.5176 93.018 22.444 93.018 22.2968V19.4264C93.018 17.2184 92.4108 15.4703 91.1964 14.1823C89.982 12.8575 88.0868 12.1951 85.5107 12.1951C83.5235 12.1951 81.8859 12.6183 80.5979 13.4647C79.3099 14.2743 78.5187 15.3783 78.2243 16.7767C78.1138 17.1448 77.893 17.3104 77.5618 17.2736L76.4026 17.108C76.2554 17.0712 76.1266 17.0159 76.0162 16.9423C75.9058 16.8319 75.869 16.7215 75.9058 16.6111C76.2738 14.6975 77.3226 13.1703 79.0523 12.0295C80.8187 10.8519 83.0083 10.2631 85.6212 10.2631ZM83.9651 36.925C86.394 36.925 88.51 36.3362 90.3132 35.1586C92.1164 33.981 93.018 32.3249 93.018 30.1905V24.56C93.018 24.4128 92.9444 24.3392 92.7972 24.3392H86.118C83.3579 24.3392 81.1131 24.9465 79.3835 26.1609C77.6906 27.3385 76.8442 28.9761 76.8442 31.0737C76.8442 32.9874 77.5066 34.441 78.8315 35.4346C80.1563 36.4282 81.8675 36.925 83.9651 36.925Z" fill="black"/>
<path d="M65.7444 0.304199C65.9284 0.304199 66.0572 0.3778 66.1308 0.525002C66.2044 0.635404 66.2044 0.782607 66.1308 0.966609L62.2668 10.6267C62.1564 10.9211 61.9539 11.0683 61.6595 11.0683H60.9419C60.5371 11.0683 60.3899 10.8659 60.5003 10.4611L63.9228 0.745805C64.0332 0.4514 64.254 0.304199 64.5852 0.304199H65.7444Z" fill="black"/>
<path d="M43.7975 5.32747C43.0615 5.32747 42.4543 5.08826 41.9759 4.60985C41.4975 4.13145 41.2583 3.54264 41.2583 2.84343C41.2583 2.10742 41.4975 1.50022 41.9759 1.02181C42.4543 0.543404 43.0615 0.304199 43.7975 0.304199C44.5335 0.304199 45.1407 0.543404 45.6192 1.02181C46.0976 1.50022 46.3368 2.10742 46.3368 2.84343C46.3368 3.54264 46.0976 4.13145 45.6192 4.60985C45.1407 5.08826 44.5335 5.32747 43.7975 5.32747ZM43.1351 38.9447C42.7671 38.9447 42.5831 38.7607 42.5831 38.3927V11.7859C42.5831 11.4179 42.7671 11.2339 43.1351 11.2339H44.1839C44.5519 11.2339 44.7359 11.4179 44.7359 11.7859V38.3927C44.7359 38.7607 44.5519 38.9447 44.1839 38.9447H43.1351Z" fill="black"/>
<path d="M0.455406 38.9999C0.234603 38.9999 0.0874012 38.9447 0.0138002 38.8343C-0.0230003 38.6871 0.0138001 38.5215 0.124202 38.3375L12.1028 19.8452C12.1764 19.7348 12.1764 19.6244 12.1028 19.514L0.124202 1.02178C0.0506007 0.874583 0.0138002 0.764181 0.0138002 0.690581C0.0138002 0.469777 0.161002 0.359375 0.455406 0.359375H1.61462C1.87222 0.359375 2.09303 0.488177 2.27703 0.745781L13.262 17.8028C13.2988 17.8396 13.354 17.858 13.4276 17.858C13.5012 17.858 13.5564 17.8396 13.5932 17.8028L24.5229 0.745781C24.7069 0.488177 24.9277 0.359375 25.1853 0.359375H26.3445C26.5653 0.359375 26.6941 0.432976 26.7309 0.580178C26.8045 0.69058 26.7861 0.837783 26.6757 1.02178L14.6972 19.5692C14.6604 19.6796 14.6604 19.79 14.6972 19.9004L26.6757 38.3375C26.7493 38.4847 26.7861 38.5951 26.7861 38.6687C26.7861 38.8895 26.6389 38.9999 26.3445 38.9999H25.1853C24.9277 38.9999 24.7069 38.8711 24.5229 38.6135L13.5932 21.6116C13.5564 21.538 13.5012 21.5012 13.4276 21.5012C13.354 21.5012 13.2988 21.538 13.262 21.6116L2.27703 38.6135C2.09303 38.8711 1.87222 38.9999 1.61462 38.9999H0.455406Z" fill="black"/>
</svg>
